PathFileType	4	(X/Y/Z)	Walk7.trc
DataRate	CameraRate	NumFrames	NumMarkers	Units	OrigDataRate	OrigDataStartFrame	OrigNumFrames
200.000000	200.000000	6	59	mm	200.000000	316	495
Frame#	Times		LFHD		RFHD		C7		CLAV		RBack		RASI		RACR1		RUA1		RElbowM		RFA1		RWRR		RWRU		LACR1		LUA1		LFA1		LWRR		LWRU		RTH1		RTH3		LTH2		LTH4		LASI		LTH3		RTB1		RTB3		RCAR		LTB2		LCAR		T10		RPSI		LLFC		LBHD		LToe		RBHD		STRN		RElbow		RTB4		RTH2		LTB1		RTB2		LTB4		LElbow		LPSI		LElbowM		LTH1		LMMAL		LMT1		RTH4		LTB3		LCAL		LMT5		RLFC		LLMAL		RMT1		RToe		RCAL		RMMAL		RLMAL		RMT5
			X1	Y1	Z1	X2	Y2	Z2	X3	Y3	Z3	X4	Y4	Z4	X5	Y5	Z5	X6	Y6	Z6	X7	Y7	Z7	X8	Y8	Z8	X9	Y9	Z9	X10	Y10	Z10	X11	Y11	Z11	X12	Y12	Z12	X13	Y13	Z13	X14	Y14	Z14	X15	Y15	Z15	X16	Y16	Z16	X17	Y17	Z17	X18	Y18	Z18	X19	Y19	Z19	X20	Y20	Z20	X21	Y21	Z21	X22	Y22	Z22	X23	Y23	Z23	X24	Y24	Z24	X25	Y25	Z25	X26	Y26	Z26	X27	Y27	Z27	X28	Y28	Z28	X29	Y29	Z29	X30	Y30	Z30	X31	Y31	Z31	X32	Y32	Z32	X33	Y33	Z33	X34	Y34	Z34	X35	Y35	Z35	X36	Y36	Z36	X37	Y37	Z37	X38	Y38	Z38	X39	Y39	Z39	X40	Y40	Z40	X41	Y41	Z41	X42	Y42	Z42	X43	Y43	Z43	X44	Y44	Z44	X45	Y45	Z45	X46	Y46	Z46	X47	Y47	Z47	X48	Y48	Z48	X49	Y49	Z49	X50	Y50	Z50	X51	Y51	Z51	X52	Y52	Z52	X53	Y53	Z53	X54	Y54	Z54	X55	Y55	Z55	X56	Y56	Z56	X57	Y57	Z57	X58	Y58	Z58	X59	Y59	Z59

316	1.58	-130.48	1433.7	-41.057	-138.09	1421.3	54.491	-309.54	1275	-8.489	-169.79	1187.1	-11.494	-360.06	1152.5	106.29	-195.69	845.32	155.94	-242.39	1214.5	168.55	-241.13	1071.6	246.45	-308.17	915.6	205.87	-198.67	828.17	283.08	-184.98	728.11	249.12	-218.64	730.19	313.65	-250.28	1221.4	-197.44	-234.82	1062.8	-275.95	-177.72	867.58	-332.74	-117.93	770.71	-314.78	-159.31	760.41	-361.24	-220.02	647.38	197.13	-146.26	497.18	149.69	-231.67	570.58	-175.19	-285.57	563.3	-198.3	-214.07	823.35	-176.46	-291.96	481.44	-167.26	-133.94	303.97	83.091	-203.17	149.92	69.375	-170.84	675.21	302.91	-316.07	206.18	-110.57	-106.67	728.12	-364.37	-400.51	1077.5	-2.4563	-447.61	855.81	50.895	-274.85	388.32	-127.91	-262.45	1364.9	-69.955	-207.15	27.867	-44.252	-271.19	1356.4	62.563	-121.32	1080.3	-7.2627	-255.77	945.81	277.14	-172.65	227.45	76.211	-136.44	602.39	154.51	-271.3	288.54	-58.24	-202.57	237.03	128.49	-298.71	204.96	-51.196	-256.96	945.55	-301.05	-457.94	861.5	-53.111	-280.75	914.85	-235.2	-280.2	647.66	-220.08	-361.01	71.962	0.94855	-261.13	31.12	-18.023	-184.61	571.08	175.01	-318.89	123.88	-45.25	-427.01	45.672	-34.319	-304.8	20.716	-103.13	-153.88	414.2	132.93	-381.86	57.707	-78.303	-169.11	49.393	36.457	-121.95	48.451	73.565	-328.43	88.331	60.423	-253.97	108.51	24.561	-267.3	100.44	106.84	-193.94	40.176	121.11
317	1.585	-124.68	1433.5	-40.621	-132.26	1421	54.921	-303.75	1274.8	-8.2332	-164.04	1186.9	-11.145	-354.47	1152.3	106.28	-190.21	845.51	156.29	-236.76	1214.2	168.8	-235.39	1071.1	246.55	-302.48	915.23	205.97	-193.2	827.91	283.57	-179.41	727.79	249.8	-213.27	729.97	314.2	-244.17	1221.4	-197.13	-228.73	1063	-275.93	-170.35	868.3	-332.45	-109.62	772.18	-313.95	-150.61	761.37	-360.63	-214.11	647.54	197.47	-139.87	497.84	149.12	-227.64	569.8	-174.73	-281.49	562.9	-198.04	-208.45	822.68	-176.12	-288.54	481.09	-167	-124.03	304.77	83.278	-186.73	148.12	69.591	-165.47	674.96	303.71	-314.74	205.87	-110.34	-97.59	729.72	-363.41	-394.83	1077.3	-2.5882	-441.91	855.77	50.967	-272.31	387.76	-127.67	-256.69	1364.7	-69.51	-206.95	27.778	-44.408	-265.37	1356.2	63.007	-115.62	1080	-6.8151	-250.24	945.52	277.33	-159.52	226.81	76.421	-130.39	603.07	154.56	-269.66	287.93	-57.88	-189.92	235.16	128.62	-297.53	204.53	-50.911	-250.56	945.66	-301.27	-452.26	861.41	-53.007	-274.36	914.75	-235.43	-275.5	647.23	-219.75	-360.77	71.946	1.1431	-261.01	31.102	-17.93	-178.46	571.47	174.91	-318.26	123.58	-45.032	-426.86	45.996	-34.178	-304.76	20.747	-103.03	-147.67	414.41	132.69	-381.62	57.851	-78.148	-148.33	49.376	36.812	-101.23	50.57	73.875	-309.31	81.289	60.538	-235.62	104.69	24.694	-248.7	95.999	106.99	-172.88	39.161	121.52
318	1.59	-118.89	1433.2	-40.183	-126.43	1420.7	55.353	-297.96	1274.6	-7.9554	-158.29	1186.6	-10.795	-348.89	1152	106.29	-184.64	845.63	156.63	-231.13	1213.8	169.07	-229.64	1070.6	246.67	-296.76	914.81	206.09	-187.71	827.6	284.11	-173.79	727.42	250.49	-207.88	729.7	314.76	-238.07	1221.4	-196.81	-222.62	1063.2	-275.91	-163.04	868.99	-332.17	-101.38	773.62	-313.12	-141.98	762.3	-360.01	-208.23	647.62	197.86	-133.73	498.31	148.62	-223.6	569.01	-174.32	-277.41	562.49	-197.78	-202.79	821.94	-175.73	-285.1	480.73	-166.74	-114.37	305.57	83.493	-170.39	146.52	69.82	-160.07	674.65	304.52	-313.4	205.56	-110.11	-88.591	731.27	-362.43	-389.13	1077.1	-2.6923	-436.15	855.66	51.116	-269.72	387.18	-127.44	-250.93	1364.5	-69.056	-206.76	27.696	-44.565	-259.54	1355.9	63.461	-109.92	1079.7	-6.4412	-244.69	945.17	277.53	-146.54	226.27	76.655	-124.45	603.54	154.65	-267.97	287.31	-57.53	-177.42	233.36	128.75	-296.31	204.1	-50.631	-244.2	945.72	-301.47	-446.56	861.28	-52.828	-267.99	914.6	-235.65	-270.83	646.79	-219.42	-360.51	71.95	1.351	-260.89	31.085	-17.84	-172.44	571.73	174.86	-317.61	123.28	-44.808	-426.71	46.344	-34.01	-304.73	20.778	-102.93	-141.76	414.42	132.5	-381.38	58.011	-77.982	-127.72	49.686	37.187	-80.785	53.008	74.221	-290.07	74.55	60.614	-217.26	101.14	24.81	-230.1	91.834	107.11	-151.98	38.492	121.94
319	1.595	-113.11	1432.9	-39.743	-120.6	1420.3	55.786	-292.17	1274.3	-7.6537	-152.54	1186.3	-10.444	-343.31	1151.7	106.32	-178.97	845.69	156.95	-225.49	1213.4	169.36	-223.88	1070.1	246.8	-291	914.33	206.24	-182.18	827.24	284.67	-168.12	727.01	251.19	-202.44	729.36	315.32	-231.99	1221.3	-196.48	-216.47	1063.3	-275.86	-155.8	869.64	-331.89	-93.227	775.02	-312.28	-133.42	763.21	-359.38	-202.37	647.62	198.29	-127.84	498.58	148.21	-219.56	568.21	-173.95	-273.34	562.07	-197.54	-197.1	821.14	-175.3	-281.63	480.35	-166.48	-104.95	306.35	83.73	-154.19	145.15	70.059	-154.63	674.28	305.34	-312.03	205.25	-109.89	-79.682	732.78	-361.44	-383.42	1076.9	-2.7641	-430.34	855.48	51.342	-267.07	386.59	-127.21	-245.18	1364.2	-68.593	-206.58	27.619	-44.723	-253.72	1355.6	63.924	-104.22	1079.3	-6.1388	-239.11	944.77	277.74	-133.76	225.82	76.907	-118.61	603.79	154.79	-266.22	286.68	-57.195	-165.08	231.65	128.9	-295.05	203.66	-50.356	-237.87	945.75	-301.67	-440.86	861.11	-52.575	-261.66	914.41	-235.86	-266.18	646.32	-219.1	-360.25	71.977	1.5729	-260.76	31.068	-17.752	-166.57	571.86	174.87	-316.95	122.98	-44.58	-426.56	46.723	-33.813	-304.7	20.806	-102.81	-136.14	414.26	132.36	-381.14	58.191	-77.804	-107.34	50.326	37.573	-60.67	55.751	74.585	-270.79	68.157	60.656	-198.97	97.886	24.913	-211.57	87.971	107.19	-131.29	38.169	122.36
320	1.6	-107.34	1432.6	-39.299	-114.78	1419.9	56.223	-286.39	1274	-7.3267	-146.79	1186	-10.091	-337.71	1151.3	106.38	-173.22	845.67	157.23	-219.85	1212.9	169.68	-218.13	1069.5	246.95	-285.22	913.8	206.4	-176.63	826.83	285.27	-162.4	726.55	251.9	-196.97	728.97	315.88	-225.95	1221.1	-196.13	-210.3	1063.4	-275.8	-148.63	870.24	-331.61	-85.156	776.37	-311.43	-124.95	764.08	-358.74	-196.54	647.54	198.75	-122.21	498.65	147.91	-215.5	567.39	-173.62	-269.27	561.65	-197.3	-191.38	820.28	-174.84	-278.15	479.98	-166.22	-95.78	307.11	83.979	-138.2	144.02	70.303	-149.15	673.87	306.16	-310.64	204.93	-109.66	-70.868	734.26	-360.43	-377.69	1076.5	-2.7994	-424.49	855.23	51.642	-264.36	385.98	-127	-239.43	1363.9	-68.121	-206.42	27.544	-44.879	-247.91	1355.2	64.396	-98.522	1079	-5.9043	-233.51	944.31	277.97	-121.2	225.48	77.169	-112.88	603.8	154.99	-264.4	286.03	-56.877	-152.92	230.03	129.04	-293.75	203.22	-50.089	-231.58	945.74	-301.84	-435.14	860.91	-52.249	-255.36	914.19	-236.07	-261.56	645.85	-218.79	-359.97	72.031	1.8079	-260.63	31.051	-17.667	-160.84	571.84	174.95	-316.28	122.69	-44.352	-426.41	47.14	-33.585	-304.69	20.831	-102.68	-130.79	413.91	132.27	-380.91	58.398	-77.611	-87.28	51.289	37.956	-40.955	58.779	74.952	-251.56	62.15	60.67	-180.83	94.955	25.001	-193.16	84.434	107.26	-110.89	38.183	122.78
321	1.605	-101.57	1432.2	-38.852	-108.96	1419.5	56.663	-280.62	1273.7	-6.9729	-141.05	1185.6	-9.7348	-332.11	1150.9	106.48	-167.36	845.57	157.48	-214.2	1212.4	170.02	-212.37	1068.9	247.12	-279.41	913.22	206.59	-171.06	826.38	285.9	-156.63	726.04	252.62	-191.47	728.52	316.44	-219.93	1220.9	-195.77	-204.12	1063.5	-275.7	-141.53	870.81	-331.33	-77.173	777.68	-310.59	-116.57	764.93	-358.1	-190.75	647.36	199.25	-116.82	498.51	147.74	-211.43	566.56	-173.32	-265.2	561.21	-197.07	-185.62	819.36	-174.36	-274.63	479.59	-165.96	-86.862	307.87	84.232	-122.47	143.12	70.546	-143.63	673.39	306.98	-309.23	204.61	-109.44	-62.156	735.68	-359.41	-371.95	1076.2	-2.7938	-418.6	854.92	52.016	-261.59	385.35	-126.81	-233.69	1363.6	-67.639	-206.26	27.472	-45.035	-242.09	1354.8	64.877	-92.813	1078.5	-5.7328	-227.88	943.81	278.21	-108.88	225.24	77.433	-107.25	603.59	155.24	-262.51	285.37	-56.582	-140.96	228.53	129.18	-292.42	202.77	-49.833	-225.33	945.68	-302	-429.41	860.68	-51.853	-249.1	913.94	-236.26	-256.94	645.36	-218.49	-359.69	72.115	2.0547	-260.49	31.034	-17.583	-155.26	571.68	175.12	-315.58	122.41	-44.125	-426.26	47.604	-33.325	-304.68	20.852	-102.53	-125.69	413.39	132.24	-380.69	58.635	-77.404	-67.614	52.558	38.328	-21.707	62.055	75.306	-232.46	56.56	60.656	-162.91	92.358	25.075	-174.97	81.237	107.3	-90.86	38.513	123.17
